<?xml version="1.0" standalone="no"?>
<!DOCTYPE svg PUBLIC "-//W3C//DTD SVG 20010904//EN"
 "http://www.w3.org/TR/2001/REC-SVG-20010904/DTD/svg10.dtd">
<svg version="1.0" xmlns="http://www.w3.org/2000/svg"
 width="201.000000pt" height="156.000000pt" viewBox="0 0 201.000000 156.000000"
 preserveAspectRatio="xMidYMid meet">

<g transform="translate(0.000000,156.000000) scale(0.100000,-0.100000)"
fill="#000000" stroke="none">
<path d="M233 1273 c-7 -2 -13 -17 -13 -32 0 -22 69 -95 383 -409 210 -210
389 -382 397 -382 17 0 790 769 790 787 0 15 -28 43 -43 43 -6 0 -177 -165
-379 -367 l-368 -368 -368 368 c-202 202 -372 367 -377 366 -6 0 -16 -3 -22
-6z"/>
</g>
</svg>
