<svg xmlns="http://www.w3.org/2000/svg" xmlns:xlink="http://www.w3.org/1999/xlink" width="173" height="46" viewBox="0 0 173 46" overflow="visible" xml:space="preserve"><path fill="#DA1E49" d="M86.041 1.489h75.738a8.811 8.811 0 0 1 8.812 8.811v25.242a8.811 8.811 0 0 1-8.812 8.812H10.3a8.81 8.81 0 0 1-8.811-8.812V10.3A8.811 8.811 0 0 1 10.3 1.489h75.741z"/><defs><path id="04mr00itxa" d="M86.041 1h75.738a9.3 9.3 0 0 1 9.302 9.3v25.242a9.296 9.296 0 0 1-9.302 9.299H10.3A9.297 9.297 0 0 1 1 35.542V10.3A9.3 9.3 0 0 1 10.3 1h75.741z"/></defs><clipPath id="wbo9voro0b"><use xlink:href="#04mr00itxa" overflow="visible"/></clipPath><path clip-path="url(#wbo9voro0b)" fill="none" stroke="#FFF" stroke-width="2" stroke-miterlimit="10" d="M86.041 1h75.738a9.3 9.3 0 0 1 9.302 9.3v25.242a9.296 9.296 0 0 1-9.302 9.299H10.3A9.297 9.297 0 0 1 1 35.542V10.3A9.3 9.3 0 0 1 10.3 1h75.741z"/><path id="Y_1_" fill="#FFF" d="m15.53 11.639 3.051 5.426c.617 1.086.925 1.8 1.2 2.542.274-.571.753-1.542 1.268-2.485l3.084-5.483h5.655L22.179 23.32v8.169h-5.004V23.32L9.772 11.639h5.758z"/><path id="o_1_" fill="#FFF" d="M41.949 18.778c1.405 1.371 2.022 2.971 2.022 5.342 0 2.514-.686 4.229-2.194 5.653-1.336 1.259-3.084 2.027-5.793 2.027-4.763 0-7.881-2.969-7.881-7.566 0-4.599 3.153-7.654 7.881-7.654 2.504 0 4.457.714 5.965 2.198zm-8.26 2.114c-.308.772-.479 1.8-.479 3.256 0 1.685.206 2.941.582 3.687.412.799 1.44 1.197 2.331 1.197 1.987 0 2.845-1.484 2.845-4.939 0-1.97-.309-3.255-.925-3.912-.445-.486-1.166-.771-1.988-.771-1.098-.002-1.989.569-2.366 1.482z"/><path id="u_1_" fill="#FFF" d="M51.614 16.494v9.396c0 1.312.138 2 .377 2.398.24.398.925.686 1.611.686 1.13 0 2.501-.686 2.844-1.399v-10.28l4.388-.771v11.167c0 .972.377 1.972 1.062 2.656l-3.256 1.541a3.548 3.548 0 0 1-1.371-1.428c-1.131.914-2.776 1.398-4.627 1.398-2.467 0-4.592-.971-5.175-2.371-.274-.654-.376-1.428-.376-2.912v-9.369l4.523-.712z"/><path id="t_1_" fill="#FFF" d="M72.931 19.494h-2.948v7.34c0 1.854.411 2.34 1.988 2.34.411 0 .823-.086 1.645-.283l.582 2.283c-1.335.457-2.536.656-3.735.656-2.331 0-4.181-.855-4.73-2.143-.273-.629-.308-.914-.308-2.258v-7.938h-1.748v-2.628h1.748c0-1.428 0-2.371.171-3.456l4.662-.971a36.328 36.328 0 0 0-.275 4.427h4.113l-1.165 2.631z"/><path id="h_1_" fill="#FFF" d="M81.465 10.325c.206.8.309 2.17.309 3.57v2.913c0 .458-.068 1.057-.068 1.228 1.2-.943 3.188-1.571 4.968-1.571 2.229 0 4.014.8 4.562 2.085.341.829.443 1.313.443 2.713v10.225h-4.49v-9.825c0-1.457-.479-2-1.781-2-1.132 0-2.606.571-3.634 1.343v10.48h-4.661V14.58c0-1.371-.137-2.742-.343-3.342l4.695-.913z"/><path id="p_1_" fill="#FFF" d="m96.363 17.294 2.742-.4s.172.6.172 2.17c1.404-1.37 3.154-2.085 5.037-2.085 1.75 0 3.463.628 4.562 1.771 1.267 1.314 1.883 3.056 1.883 5.598 0 2.285-.407 3.598-1.368 4.912-1.233 1.658-3.054 2.6-5.279 2.6-1.748 0-3.496-.627-4.693-1.655v6.797l-2.674.429V20.35c-.002-2.171-.382-3.056-.382-3.056zm3.054 10.852c1.267 1.199 2.739 1.854 4.181 1.854 1.575 0 3.018-.713 3.598-1.77.518-.914.721-2 .721-3.601 0-1.713-.309-3.228-.787-4.083-.549-.972-1.783-1.571-3.152-1.571-1.713 0-3.256.686-4.559 1.999l-.002 7.172z"/><path id="a_1_" fill="#FFF" d="M114.836 18.807c2.264-1.256 4.697-1.913 7.164-1.913 2.365 0 4.012.771 4.729 2.228.377.771.412 1.855.377 3.141l-.137 4.682c-.068 2.314.104 2.916 1.368 3.486l-1.368 1.601c-1.166-.314-2.021-1.087-2.332-2.087-1.646 1.371-2.979 1.914-4.935 1.914-4.218 0-5.483-2.145-5.483-4.055 0-3.229 3.325-5.114 9.049-5.114.717 0 1.198.028 1.198.028v-.998c0-1.257-.067-1.771-.549-2.227-.547-.515-1.233-.772-2.297-.772-1.918 0-4.353.856-5.449 1.686l-1.335-1.6zm9.562 5.453c-.444-.025-.856-.055-1.338-.055-4.315 0-5.858 1.229-5.858 3.396 0 1.688.993 2.602 2.948 2.602 1.746 0 3.355-.887 4.146-2.229l.102-3.714z"/><path id="s_3_" fill="#FFF" d="m143.146 17.865-.994 1.657c-1.51-.601-2.776-1.029-4.282-1.029-1.957 0-3.224.942-3.224 2.342 0 1.085.65 1.743 2.469 2.056l2.261.399c3.086.542 4.562 1.856 4.562 3.97 0 2.771-2.605 4.654-6.445 4.654-2.158 0-4.521-.541-6.271-1.426l1.027-1.656c1.75.883 3.531 1.34 5.416 1.34 2.092 0 3.463-.939 3.463-2.455 0-1.285-.855-1.998-2.812-2.344l-2.125-.369c-2.81-.484-4.316-1.941-4.316-3.914 0-2.571 2.502-4.37 6.064-4.37 1.778.002 3.769.46 5.207 1.145z"/><path id="s_2_" fill="#FFF" d="m158.672 17.865-.996 1.657c-1.508-.601-2.773-1.029-4.281-1.029-1.955 0-3.223.942-3.223 2.342 0 1.085.648 1.743 2.467 2.056l2.264.399c3.084.542 4.56 1.856 4.56 3.97 0 2.771-2.604 4.654-6.444 4.654-2.158 0-4.521-.541-6.271-1.426l1.029-1.656c1.746.883 3.529 1.34 5.416 1.34 2.092 0 3.459-.939 3.459-2.455 0-1.285-.854-1.998-2.81-2.344l-2.125-.369c-2.812-.484-4.319-1.941-4.319-3.914 0-2.571 2.502-4.37 6.065-4.37 1.78.002 3.767.46 5.209 1.145z"/></svg>
